<svg xmlns="http://www.w3.org/2000/svg" fill="none" viewBox="0 0 371 69"><path fill="#000" d="M77 44.88V13h52.56v21.13l-15.28 3.13L131.63 56h-18.26L98.95 40.4l-8.75 1.78V56H77zm13.2-12.35 26.15-5.34v-5.47H90.2zM134.14 56l12.34-34.28h-6.27V13h35.15l15.38 43h-13.66l-3.84-10.75h-21.55L147.84 56zm20.68-19.47h15.28l-5.36-14.8h-4.55zm31.76-14.81V13h43.9l16.15 10.44V56h-52.51V21.72zm20.8 25.56h26.1V25.9L227 21.72h-19.63zM251.7 56l12.34-34.28h-6.27V13h35.16l15.37 43h-13.66l-3.84-10.75h-21.55L265.41 56zm20.69-19.47h15.27l-5.36-14.8h-4.55zm35.91 9.89V36.9l7.53-1.54V13h52.56v21.13l-15.28 3.13L370.46 56H352.2l-14.4-15.6-8.75 1.78V56h-13.2V44.88zm20.74-13.89 26.15-5.34v-5.47h-26.15z"/><g fill="#000" clip-path="url(#a)"><path d="M52.84 58.34A27 27 0 0 1 34 66a27 27 0 0 1-18.71-7.54l19.21-2.62zM20.35 31.33 8.2 47a27 27 0 0 1 19.77-34.33zm20.79-18.37a27 27 0 0 1 18.92 33.1l-11.4-14.73z"/><path d="m34.5 2 12.4 30.34 20.08 25.91-32.48-4.43-32.48 4.43L22.1 32.34z"/></g><defs><clipPath id="a"><path fill="#fff" d="M0 0h69v69H0z"/></clipPath></defs></svg>